inDegrees=yes
name=ik_lifting_orientations
DataType=double
version=3
OpenSimVersion=4.5-2024-01-10-34fd6af
endheader
time	pelvis_tilt	pelvis_list	pelvis_rotation	pelvis_tx	pelvis_ty	pelvis_tz	hip_flexion_r	hip_adduction_r	hip_rotation_r	knee_angle_r	knee_angle_r_beta	ankle_angle_r	subtalar_angle_r	mtp_angle_r	hip_flexion_l	hip_adduction_l	hip_rotation_l	knee_angle_l	knee_angle_l_beta	ankle_angle_l	subtalar_angle_l	mtp_angle_l	lumbar_extension	lumbar_bending	lumbar_rotation	arm_flex_r	arm_add_r	arm_rot_r	elbow_flex_r	pro_sup_r	wrist_flex_r	wrist_dev_r	arm_flex_l	arm_add_l	arm_rot_l	elbow_flex_l	pro_sup_l	wrist_flex_l	wrist_dev_l
1.46	-5.499535193339452	-9.994492443031682	-73.14345699878128	0	0.9399999998679526	0	45.18746952952222	-10.16053842207373	0	60.01662551524505	1.047487721177464	-5.054430278294388	0	0	45.18746952952222	-10.16053842207373	0	60.01662551524505	1.047487721177464	-5.054430278294388	0	0	10.7783892716585	-1.125542977166847	-21.78336036242177	-2.747745443879908	-17.04354491564567	27.81344261785811	125.3754311555786	1.206208979198658	0	0	0	-12.59043883796506	0	88.82309038825387	1.206208979198658	0	0
1.47	-5.329708004937626	-10.24129657999366	-73.13281459484399	0	0.9399999998679526	0	45.18739238464709	-10.16030870507943	0	60.01662017108976	1.047487627904359	-5.054328782276061	0	0	45.18739238464709	-10.16030870507943	0	60.01662017108976	1.047487627904359	-5.054328782276061	0	0	9.580763807173371	-0.6713953056661683	-22.4067448775784	-2.212242122491979	-17.88343796354907	27.71389792872268	128.6699109251943	1.205863061515032	0	0	0	-12.5909480657615	0	88.82342785087064	1.205863061515032	0	0
1.48	-5.039246092408539	-10.57468649456832	-73.39328036810828	0	0.9399999998679526	0	45.18730181521514	-10.16003913357755	0	60.01661390027324	1.047487518457964	-5.05420972170731	0	0	45.18730181521514	-10.16003913357755	0	60.01661390027324	1.047487518457964	-5.05420972170731	0	0	8.306358045379541	-0.3029275033434414	-22.64306267486586	-1.876833294419932	-18.88925045656466	27.83738241166064	133.6715135086187	1.205456987763758	0	0	0	-12.59154577662729	0	88.82382399919416	1.205456987763758	0	0
1.49	-4.800650011435192	-10.87451293136654	-73.04560810031145	0	0.9399999998679526	0	45.18722349254791	-10.15980849703845	0	60.01660843452286	1.047487423062623	-5.054108089928619	0	0	45.18722349254791	-10.15980849703845	0	60.01660843452286	1.047487423062623	-5.054108089928619	0	0	7.124036190402729	0.09222157171754897	-23.59373164810299	-1.763324744346399	-20.14962893881652	27.75429952973345	137.4197244611752	1.205104720202021	0	0	0	-12.59206565789824	0	88.82416765652222	1.205104720202021	0	0
1.5	-4.665892869872122	-11.10233343225217	-73.17102655982565	0	0.9399999998679526	0	45.18712045362449	-10.15950149833518	0	60.01660131757283	1.047487298848413	-5.053972542896188	0	0	45.18712045362449	-10.15950149833518	0	60.01660131757283	1.047487298848413	-5.053972542896188	0	0	6.253630464755567	0.5144081267205369	-24.20224507508285	-2.208549726880437	-21.25280367638451	27.62230864693781	140.7213435069806	1.204643075977853	0	0	0	-12.59274469750381	0	88.82461801703106	1.204643075977853	0	0
1.51	-4.498691128180057	-11.37020388971338	-72.90602527062603	0	0.9399999998679526	0	45.18700851291828	-10.15916997478329	0	60.01659355687953	1.047487163398763	-5.053826388425558	0	0	45.18700851291828	-10.15916997478329	0	60.01659355687953	1.047487163398763	-5.053826388425558	0	0	5.435735956977074	0.7975934175178814	-25.05589570823473	-2.962458252844346	-22.64607850420765	27.21308924893502	144.4368821511471	1.204140760946106	0	0	0	-12.59348451287939	0	88.82510805428265	1.204140760946106	0	0
1.52	-4.436586127529329	-11.51978722812684	-72.51121421032944	0	0.9399999998679526	0	45.18690748973977	-10.15887460303298	0	60.01658648539149	1.047487039978013	-5.053696520564437	0	0	45.18690748973977	-10.15887460303298	0	60.01658648539149	1.047487039978013	-5.053696520564437	0	0	4.462640889810984	1.239019565256798	-26.13417003172811	-3.50798742543123	-24.45690220370403	26.80815072890712	149.0301976076945	1.203685699532459	0	0	0	-12.59415690082334	0	88.82555199297084	1.203685699532459	0	0
1.53	-4.264142820088773	-11.70699380062168	-72.52415159717687	0	0.9399999998679526	0	45.18679958548313	-10.15855515541427	0	60.01657901859549	1.047486909657838	-5.053555799200766	0	0	45.18679958548313	-10.15855515541427	0	60.01657901859549	1.047486909657838	-5.053555799200766	0	0	3.57180889729265	1.558810792205073	-26.82985934962761	-4.649221035096282	-26.53706013515771	26.2009945864304	153.3902069372655	1.203201721162164	0	0	0	-12.59486936037667	0	88.82602414174671	1.203201721162164	0	0
1.54	-4.091511660681064	-11.89942555013101	-72.52573937261839	0	0.9399999998679526	0	45.18668699214734	-10.15822564061194	0	60.01657116012285	1.047486772501617	-5.053410994761827	0	0	45.18668699214734	-10.15822564061194	0	60.01657116012285	1.047486772501617	-5.053410994761827	0	0	2.675491199772829	1.887261783927047	-27.53517733151448	-5.845874757392065	-28.57333573285094	25.67491971980249	158.7585710472236	1.202694979989324	0	0	0	-12.59561749046537	0	88.82651849701097	1.202694979989324	0	0
1.55	-3.999563330803667	-12.08745622067186	-72.13843160456346	0	0.9399999998679526	0	45.18658654536918	-10.15792851229587	0	60.01656421885604	1.047486651353656	-5.053280211519599	0	0	45.18658654536918	-10.15792851229587	0	60.01656421885604	1.047486651353656	-5.053280211519599	0	0	2.086998443239679	2.177499505632411	-28.53388430316343	-7.728434106544652	-30.64888896435607	24.45008332882987	162.8324300970743	1.202244573397919	0	0	0	-12.59628031938439	0	88.82695789458059	1.202244573397919	0	0
1.56	-3.873087762023739	-12.34689467729661	-71.49727605122378	0	0.9399999998679526	0	45.18648196292838	-10.15762888195768	0	60.01655680768545	1.047486522004328	-5.053149146340836	0	0	45.18648196292838	-10.15762888195768	0	60.01655680768545	1.047486522004328	-5.053149146340836	0	0	1.30366030167789	2.487432602049753	-29.57825079678683	-8.223603660988324	-31.76711931061802	24.19079015622989	166.2015533723396	1.201770992598538	0	0	0	-12.59698308304419	0	88.82741990009151	1.201770992598538	0	0
1.57	-3.929641652953275	-12.41000071422943	-70.90105635181689	0	0.9399999998679526	0	45.18636074601416	-10.15727981097275	0	60.016548261269	1.047486372841222	-5.052996357255329	0	0	45.18636074601416	-10.15727981097275	0	60.016548261269	1.047486372841222	-5.052996357255329	0	0	0.690554581382665	2.88047068023929	-30.60899005097089	-9.697834204362593	-33.66305862666294	23.15055072249226	171.4022208826637	1.201223096205809	0	0	0	-12.59779482792193	0	88.82795440473524	1.201223096205809	0	0
1.58	-3.958924634848504	-12.46893960355399	-70.52233292352899	0	0.9399999998679526	0	45.18625605678353	-10.15697697295431	0	60.0165409152189	1.047486244628461	-5.05286374127991	0	0	45.18625605678353	-10.15697697295431	0	60.0165409152189	1.047486244628461	-5.05286374127991	0	0	0.003577916866799489	3.30078422820353	-31.54700165068225	-10.81019487128591	-35.35626242133596	22.64517638222062	176.4513467195406	1.200750710714942	0	0	0	-12.59849365224678	0	88.82841524409595	1.200750710714942	0	0
1.59	-3.923406066238711	-12.52365262389324	-70.95510096192041	0	0.9399999998679526	0	45.18619982202399	-10.15681184314902	0	60.016537020462	1.047486176652129	-5.052791245932705	0	0	45.18619982202399	-10.15681184314902	0	60.016537020462	1.047486176652129	-5.052791245932705	0	0	-0.5610291525267517	3.590546413876421	-31.74779934214198	-10.26101472330703	-35.81951282312231	23.05864050718787	178.2127908504041	1.20049821506201	0	0	0	-12.59886559813219	0	88.82866156816122	1.20049821506201	0	0
1.6	-3.938371441801652	-12.62427398562521	-70.48789422893363	0	0.9399999998679526	0	45.18611498012019	-10.15656248098169	0	60.01653115208338	1.047486074229601	-5.052681772274533	0	0	45.18611498012019	-10.15656248098169	0	60.01653115208338	1.047486074229601	-5.052681772274533	0	0	-1.017148354439437	3.969386389338255	-32.83386786230043	-7.675181267082333	-35.24883570147838	24.38533564789875	177.0466796257944	1.200117434565359	0	0	0	-12.59942630358459	0	88.82903304148192	1.200117434565359	0	0
1.61	-3.845003403132801	-12.82960054042505	-69.78088344411833	0	0.9399999998679526	0	45.18599297535561	-10.15620314850613	0	60.01652273594352	1.04748592734025	-5.052524009962683	0	0	45.18599297535561	-10.15620314850613	0	60.01652273594352	1.04748592734025	-5.052524009962683	0	0	-1.67431049290909	4.27010639469106	-34.06926202694597	-4.908812395441624	-34.70900160889939	25.90003563277626	177.3074556486963	1.199570363225544	0	0	0	-12.60023121200158	0	88.82956674108756	1.199570363225544	0	0
1.62	-3.870310485528792	-12.96526278902545	-68.61702237584998	0	0.9399999998679526	0	45.18588931597483	-10.1558986978827	0	60.01651557680314	1.047485802389678	-5.052390461047436	0	0	45.18588931597483	-10.1558986978827	0	60.01651557680314	1.047485802389678	-5.052390461047436	0	0	-2.146880909811677	4.608059985276031	-35.39934865413584	-2.41692540615572	-33.87453015982811	26.70746638205939	176.6684595181688	1.199105279132032	0	0	0	-12.60091580541511	0	88.83002045742239	1.199105279132032	0	0
1.63	-3.960975957074913	-12.88750918643323	-68.9076015883339	0	0.9399999998679526	0	45.18584826046528	-10.15577837172054	0	60.01651273832332	1.04748575284886	-5.0523377118923	0	0	45.18584826046528	-10.15577837172054	0	60.01651273832332	1.04748575284886	-5.0523377118923	0	0	-2.381952463701804	4.840060053733779	-35.23043959145244	-2.52377242534697	-33.89686734155913	26.16232545013153	176.6995030329099	1.198920986752248	0	0	0	-12.60118718598749	0	88.83020024526267	1.198920986752248	0	0
1.64	-4.073633806992343	-12.83437041288825	-68.34064889047059	0	0.9399999998679526	0	45.18469023357773	-10.15339330214525	0	60.01641314776289	1.047484014665677	-5.051374516793222	0	0	45.18469023357773	-10.15339330214525	0	60.01641314776289	1.047484014665677	-5.051374516793222	0	0	-2.530707361271498	5.121851964947407	-35.8850353743499	-2.910133858568887	-33.74976321129208	25.17386809629013	175.4008445938514	1.193232492087916	0	0	0	-12.61018260579651	0	88.83574971714755	1.193232492087916	0	0
1.65	-4.003516014040986	-12.9472008567363	-67.83042295993972	0	0.9399999998679526	0	45.18157151425322	-10.14728758510272	0	60.01614120347215	1.047479268342421	-5.048949215665834	0	0	45.18157151425322	-10.14728758510272	0	60.01614120347215	1.047479268342421	-5.048949215665834	0	0	-3.096456715007598	5.38072838773099	-37.38106889806264	0.05485955873669966	-32.1267663465222	26.35676615472266	171.0841069493288	1.177775246441203	0	0	0	-12.6347775768788	0	88.85082920292388	1.177775246441203	0	0
1.66	-3.977095411850849	-13.09075289401423	-66.77007310216015	0	0.9399999998679526	0	45.18132476770038	-10.14659085652054	0	60.01612413362833	1.047478970417444	-5.048647657815697	0	0	45.18132476770038	-10.14659085652054	0	60.01612413362833	1.047478970417444	-5.048647657815697	0	0	-3.471605299734045	5.673477757109229	-38.66406221504968	2.887123101716605	-30.25384936434448	27.08740864568631	167.5335288631609	1.176661093493841	0	0	0	-12.63642453021264	0	88.85191612371052	1.176661093493841	0	0
1.67	-3.904928185403996	-13.17286722229836	-66.68422703918689	0	0.9399999998679526	0	45.17751567246113	-10.13937015573997	0	60.01579133792077	1.04747316203661	-5.045810975433414	0	0	45.17751567246113	-10.13937015573997	0	60.01579133792077	1.04747316203661	-5.045810975433414	0	0	-3.862566272567844	5.860932023453535	-38.98963675025038	5.654282724502824	-28.32545470817527	27.44696125687858	162.9237413327888	1.157682529215945	0	0	0	-12.66672908786807	0	88.87043087346451	1.157682529215945	0	0
1.68	-3.958416218230484	-13.10191402954165	-67.40515173233904	0	0.9399999998679526	0	45.17729196708417	-10.13875984425669	0	60.01577583712987	1.047472891496772	-5.045549818556418	0	0	45.17729196708417	-10.13875984425669	0	60.01577583712987	1.047472891496772	-5.045549818556418	0	0	-4.322238054418326	6.015383717202688	-38.94159227784085	8.120804079446039	-26.37752109710669	28.738179911071	159.664656587426	1.156666512704009	0	0	0	-12.66823692887724	0	88.87142205677648	1.156666512704009	0	0
1.69	-3.940756707705427	-13.08361385447055	-67.82962170536737	0	0.9399999998679526	0	45.1770114592118	-10.13799838854012	0	60.01575638107271	1.047472551924515	-5.045224616377706	0	0	45.1770114592118	-10.13799838854012	0	60.01575638107271	1.047472551924515	-5.045224616377706	0	0	-4.87681154460206	6.164155468308332	-39.20159547990851	10.43532534988408	-24.44745527503419	30.03167833062092	156.5253362857119	1.155391574206933	0	0	0	-12.67012995143744	0	88.87266583360881	1.155391574206933	0	0
